<svg xmlns="http://www.w3.org/2000/svg" width="400" height="1800" viewBox="0 0 400 1800"><g fill="#8050ed" opacity=".3" transform="translate(2 180) scale(0.48)"><circle cx="5.4" cy="-30.3" r="14.3"/><circle cx="-16.1" cy="23.6" r="5.0"/><circle cx="15.2" cy="4.4" r="17.0"/><circle cx="40.8" cy="40.1" r="8.8"/><circle cx="18.3" cy="-20.7" r="10.6"/><circle cx="8.7" cy="50.2" r="16.3"/><circle cx="21.6" cy="-11.8" r="5.6"/><circle cx="3.9" cy="1.0" r="15.0"/><circle cx="-6.5" cy="5.2" r="9.9"/><circle cx="7.4" cy="26.4" r="13.7"/><circle cx="14.7" cy="32.0" r="8.3"/><circle cx="-10.1" cy="-12.4" r="14.2"/><circle cx="-23.8" cy="11.6" r="10.8"/><circle cx="7.9" cy="-18.5" r="14.0"/><circle cx="-5.3" cy="-16.1" r="8.0"/><circle cx="-24.5" cy="-30.2" r="15.1"/><circle cx="5.9" cy="-31.2" r="7.0"/><circle cx="2.4" cy="-12.8" r="9.9"/><circle cx="-13.3" cy="16.0" r="10.7"/><circle cx="0.5" cy="14.0" r="12.3"/><circle cx="8.6" cy="10.3" r="8.8"/><circle cx="-3.5" cy="7.3" r="5.1"/><circle cx="-30.4" cy="4.6" r="5.1"/><circle cx="3.8" cy="7.7" r="8.4"/><circle cx="-28.3" cy="-2.4" r="8.8"/><circle cx="55.5" cy="-16.6" r="10.8"/><circle cx="21.5" cy="13.6" r="6.9"/><circle cx="-28.6" cy="16.6" r="12.5"/><circle cx="25.7" cy="127.1" r="0.8" opacity="0.46"/><circle cx="2.1" cy="-178.0" r="0.6" opacity="0.85"/><circle cx="-76.8" cy="-98.9" r="2" opacity="0.53"/><circle cx="-99.3" cy="-106.0" r="2.5" opacity="0.77"/><circle cx="9.0" cy="36.2" r="0.8" opacity="0.57"/><circle cx="-64.1" cy="-84.2" r="3.5" opacity="0.29"/><circle cx="-161.2" cy="196.5" r="3.5" opacity="0.54"/><circle cx="54.6" cy="-87.0" r="3.5" opacity="0.58"/><circle cx="-37.9" cy="-133.2" r="1.5" opacity="0.40"/><circle cx="-30.9" cy="187.0" r="2" opacity="0.51"/><circle cx="37.5" cy="-81.5" r="0.6" opacity="0.46"/><circle cx="-30.4" cy="-92.0" r="2.5" opacity="0.36"/><circle cx="-110.3" cy="-88.0" r="2.5" opacity="0.33"/><circle cx="43.9" cy="-93.5" r="7" opacity="0.81"/><circle cx="42.2" cy="16.0" r="5" opacity="0.41"/><circle cx="6.5" cy="-196.2" r="3.5" opacity="0.78"/><circle cx="150.4" cy="19.1" r="1.5" opacity="0.69"/><circle cx="-92.7" cy="6.6" r="2.5" opacity="0.35"/><circle cx="-49.7" cy="-154.8" r="0.8" opacity="0.29"/><circle cx="-98.5" cy="26.0" r="0.6" opacity="0.78"/><circle cx="121.0" cy="71.0" r="7" opacity="0.27"/><circle cx="-8.8" cy="-41.7" r="1" opacity="0.26"/><circle cx="-7.2" cy="94.6" r="0.8" opacity="0.50"/><circle cx="-96.5" cy="10.3" r="3.5" opacity="0.78"/><circle cx="11.5" cy="-29.7" r="7" opacity="0.35"/><circle cx="61.9" cy="84.9" r="1.5" opacity="0.67"/><circle cx="53.5" cy="111.7" r="7" opacity="0.65"/><circle cx="73.6" cy="-87.8" r="2.5" opacity="0.62"/><circle cx="37.8" cy="-6.6" r="0.8" opacity="0.72"/><circle cx="82.6" cy="-128.1" r="1" opacity="0.49"/><circle cx="-48.9" cy="48.8" r="7" opacity="0.27"/><circle cx="-52.1" cy="67.4" r="5" opacity="0.29"/><circle cx="-30.6" cy="-42.8" r="2.5" opacity="0.55"/><circle cx="121.8" cy="160.3" r="0.8" opacity="0.66"/><circle cx="-117.0" cy="-26.7" r="7" opacity="0.27"/><circle cx="-80.4" cy="12.8" r="0.6" opacity="0.64"/><circle cx="53.4" cy="-6.1" r="3.5" opacity="0.77"/><circle cx="78.4" cy="144.1" r="1.5" opacity="0.82"/><circle cx="20.2" cy="34.0" r="1" opacity="0.73"/><circle cx="-145.8" cy="-8.9" r="1" opacity="0.25"/><circle cx="-7.5" cy="149.9" r="0.8" opacity="0.79"/><circle cx="8.6" cy="115.4" r="3.5" opacity="0.26"/><circle cx="21.6" cy="-43.3" r="2.5" opacity="0.67"/><circle cx="26.5" cy="102.3" r="0.6" opacity="0.54"/><circle cx="-7.3" cy="-1.8" r="3.5" opacity="0.66"/><circle cx="25.8" cy="-10.0" r="0.6" opacity="0.67"/><circle cx="-52.4" cy="63.1" r="0.6" opacity="0.32"/><circle cx="60.0" cy="-68.7" r="0.8" opacity="0.41"/><circle cx="-2.6" cy="-2.6" r="7" opacity="0.48"/><circle cx="74.7" cy="82.7" r="5" opacity="0.77"/><circle cx="-85.4" cy="48.6" r="1.5" opacity="0.34"/><circle cx="-35.8" cy="6.9" r="7" opacity="0.25"/><circle cx="-16.9" cy="-66.0" r="1.5" opacity="0.79"/><circle cx="0.4" cy="99.5" r="5" opacity="0.79"/><circle cx="24.2" cy="27.5" r="5" opacity="0.54"/><circle cx="67.4" cy="-46.2" r="1" opacity="0.67"/><circle cx="19.3" cy="-35.5" r="2" opacity="0.57"/><circle cx="14.4" cy="28.6" r="7" opacity="0.39"/><circle cx="-28.2" cy="-77.6" r="1" opacity="0.51"/><circle cx="20.3" cy="231.3" r="0.8" opacity="0.64"/><circle cx="-22.4" cy="41.3" r="7" opacity="0.72"/><circle cx="-119.6" cy="154.9" r="2" opacity="0.62"/><circle cx="-8.3" cy="-42.7" r="5" opacity="0.53"/><circle cx="-31.9" cy="-100.9" r="7" opacity="0.73"/><circle cx="-80.6" cy="-106.1" r="7" opacity="0.68"/><circle cx="55.2" cy="117.3" r="3.5" opacity="0.29"/><circle cx="148.8" cy="76.6" r="0.8" opacity="0.76"/><circle cx="50.3" cy="-48.4" r="2" opacity="0.44"/><circle cx="13.0" cy="-65.5" r="1.5" opacity="0.65"/><circle cx="-46.7" cy="-230.5" r="3.5" opacity="0.43"/><circle cx="45.7" cy="-117.2" r="2.5" opacity="0.50"/><circle cx="-70.7" cy="-221.0" r="1" opacity="0.56"/><circle cx="44.8" cy="-77.3" r="0.8" opacity="0.79"/><circle cx="-80.7" cy="-6.4" r="0.8" opacity="0.65"/><circle cx="6.4" cy="-117.5" r="0.8" opacity="0.60"/><circle cx="1.2" cy="-7.3" r="7" opacity="0.53"/><circle cx="-16.6" cy="-68.7" r="2.5" opacity="0.65"/><circle cx="9.6" cy="33.9" r="0.8" opacity="0.31"/><circle cx="36.1" cy="-55.0" r="2" opacity="0.59"/><circle cx="61.3" cy="-13.0" r="1.5" opacity="0.52"/><circle cx="98.3" cy="33.3" r="1" opacity="0.83"/><circle cx="119.3" cy="-128.8" r="7" opacity="0.39"/><circle cx="-115.9" cy="10.3" r="1.5" opacity="0.83"/><circle cx="4.5" cy="71.4" r="0.6" opacity="0.80"/><circle cx="-86.8" cy="-49.7" r="1.5" opacity="0.74"/><circle cx="5.2" cy="163.3" r="2.5" opacity="0.43"/><circle cx="76.3" cy="51.3" r="1.5" opacity="0.26"/><circle cx="-36.2" cy="15.0" r="3.5" opacity="0.56"/><circle cx="106.7" cy="-75.5" r="0.8" opacity="0.60"/><circle cx="-60.2" cy="131.9" r="1.5" opacity="0.49"/><circle cx="77.7" cy="-10.9" r="3.5" opacity="0.29"/><circle cx="-7.4" cy="-6.0" r="1.5" opacity="0.84"/><circle cx="-24.0" cy="-48.8" r="0.8" opacity="0.54"/><circle cx="-23.1" cy="-43.0" r="2.5" opacity="0.49"/><circle cx="-68.5" cy="57.5" r="2.5" opacity="0.69"/><circle cx="-83.2" cy="131.3" r="0.8" opacity="0.35"/><circle cx="-31.9" cy="20.2" r="5" opacity="0.26"/><circle cx="7.3" cy="-17.3" r="3.5" opacity="0.65"/><circle cx="4.0" cy="-46.7" r="5" opacity="0.80"/><circle cx="5.0" cy="76.0" r="2.5" opacity="0.81"/><circle cx="24.7" cy="148.1" r="2" opacity="0.76"/><circle cx="-166.6" cy="-137.7" r="5" opacity="0.46"/><circle cx="-9.8" cy="31.5" r="0.6" opacity="0.48"/><circle cx="27.7" cy="-2.1" r="0.6" opacity="0.65"/><circle cx="-17.2" cy="98.9" r="2.5" opacity="0.79"/><circle cx="123.4" cy="-17.4" r="1" opacity="0.56"/><circle cx="94.6" cy="108.0" r="1.5" opacity="0.28"/><circle cx="107.0" cy="85.5" r="0.6" opacity="0.62"/><circle cx="-158.7" cy="-40.8" r="0.6" opacity="0.85"/><circle cx="-153.2" cy="10.8" r="7" opacity="0.42"/><circle cx="96.8" cy="-51.7" r="1.5" opacity="0.78"/><circle cx="-20.9" cy="172.0" r="5" opacity="0.50"/><circle cx="-127.0" cy="-103.7" r="2.5" opacity="0.79"/><circle cx="18.6" cy="139.3" r="7" opacity="0.78"/><circle cx="137.6" cy="-97.7" r="1.5" opacity="0.54"/><circle cx="-17.8" cy="-240.0" r="2.5" opacity="0.64"/><circle cx="193.9" cy="-100.1" r="1" opacity="0.72"/><circle cx="-52.7" cy="-164.1" r="0.6" opacity="0.66"/><circle cx="-17.5" cy="37.9" r="7" opacity="0.35"/><circle cx="-55.0" cy="-27.5" r="5" opacity="0.62"/><circle cx="-79.0" cy="-76.2" r="1.5" opacity="0.47"/><circle cx="-54.2" cy="-98.7" r="1.5" opacity="0.85"/><circle cx="-28.0" cy="-92.4" r="2.5" opacity="0.83"/><circle cx="7.1" cy="-66.8" r="2.5" opacity="0.35"/><circle cx="8.7" cy="-81.7" r="0.6" opacity="0.60"/><ellipse cx="-16.2" cy="-62.5" rx="2" ry="9" transform="rotate(165.5 -16.2 -62.5)"/><ellipse cx="7.6" cy="-72.6" rx="2" ry="9" transform="rotate(186.0 7.6 -72.6)"/><ellipse cx="30.8" cy="-54.7" rx="2" ry="9" transform="rotate(209.4 30.8 -54.7)"/><ellipse cx="-38.5" cy="32.2" rx="2" ry="9" transform="rotate(50.1 -38.5 32.2)"/><ellipse cx="25.0" cy="-60.4" rx="2" ry="9" transform="rotate(202.5 25.0 -60.4)"/><ellipse cx="-58.5" cy="-46.0" rx="2" ry="9" transform="rotate(128.2 -58.5 -46.0)"/><ellipse cx="55.8" cy="0.7" rx="2" ry="9" transform="rotate(-89.3 55.8 0.7)"/><ellipse cx="17.0" cy="54.7" rx="2" ry="9" transform="rotate(-17.3 17.0 54.7)"/><path d="M8 27 Q6 67 11 105 Q14 120 16 105 L15 27Z" opacity=".42"/></g><g fill="#365aff" opacity=".3" transform="translate(396 620) scale(0.5519999999999999)"><circle cx="-2.5" cy="-11.8" r="11.3"/><circle cx="19.5" cy="-12.2" r="6.1"/><circle cx="-11.0" cy="3.0" r="4.7"/><circle cx="-15.8" cy="24.2" r="9.3"/><circle cx="-4.9" cy="-12.2" r="8.8"/><circle cx="8.0" cy="-13.8" r="4.6"/><circle cx="-1.7" cy="16.0" r="7.2"/><circle cx="-12.3" cy="43.6" r="4.1"/><circle cx="36.1" cy="-12.2" r="11.8"/><circle cx="-44.6" cy="10.3" r="15.5"/><circle cx="3.5" cy="10.4" r="15.7"/><circle cx="6.9" cy="27.0" r="11.1"/><circle cx="-18.6" cy="10.7" r="13.2"/><circle cx="50.3" cy="10.8" r="11.1"/><circle cx="-22.9" cy="19.4" r="16.8"/><circle cx="-21.2" cy="-5.1" r="10.7"/><circle cx="11.5" cy="5.8" r="4.8"/><circle cx="36.4" cy="-7.4" r="8.7"/><circle cx="23.5" cy="15.2" r="8.4"/><circle cx="-21.3" cy="27.4" r="8.9"/><circle cx="-27.7" cy="-22.8" r="11.6"/><circle cx="1.3" cy="50.8" r="5.1"/><circle cx="-10.8" cy="45.3" r="5.6"/><circle cx="1.0" cy="-10.8" r="8.4"/><circle cx="-23.4" cy="12.6" r="15.4"/><circle cx="-15.6" cy="-38.0" r="14.7"/><circle cx="10.8" cy="18.2" r="15.0"/><circle cx="-25.8" cy="-29.2" r="4.7"/><circle cx="-26.8" cy="22.2" r="0.6" opacity="0.42"/><circle cx="62.0" cy="-103.6" r="2" opacity="0.52"/><circle cx="-66.4" cy="72.4" r="5" opacity="0.33"/><circle cx="-191.4" cy="19.5" r="7" opacity="0.79"/><circle cx="-25.7" cy="160.0" r="0.6" opacity="0.37"/><circle cx="-33.4" cy="20.6" r="2.5" opacity="0.44"/><circle cx="70.8" cy="-65.3" r="2.5" opacity="0.27"/><circle cx="-14.9" cy="94.4" r="1.5" opacity="0.78"/><circle cx="25.7" cy="-5.4" r="5" opacity="0.58"/><circle cx="19.8" cy="-73.7" r="7" opacity="0.33"/><circle cx="26.2" cy="131.0" r="1" opacity="0.59"/><circle cx="-62.0" cy="21.5" r="3.5" opacity="0.41"/><circle cx="116.1" cy="-4.0" r="2.5" opacity="0.72"/><circle cx="-56.5" cy="39.7" r="1" opacity="0.62"/><circle cx="10.1" cy="-54.7" r="0.6" opacity="0.50"/><circle cx="41.6" cy="-127.5" r="2" opacity="0.77"/><circle cx="-84.1" cy="50.7" r="5" opacity="0.29"/><circle cx="-31.9" cy="-78.7" r="3.5" opacity="0.78"/><circle cx="24.3" cy="-99.3" r="2.5" opacity="0.68"/><circle cx="49.3" cy="-68.2" r="1" opacity="0.28"/><circle cx="-11.9" cy="146.5" r="3.5" opacity="0.44"/><circle cx="70.7" cy="-16.8" r="1" opacity="0.42"/><circle cx="-7.7" cy="-31.6" r="0.8" opacity="0.39"/><circle cx="-110.1" cy="-57.2" r="7" opacity="0.71"/><circle cx="146.0" cy="-19.8" r="2.5" opacity="0.76"/><circle cx="40.2" cy="-98.3" r="0.8" opacity="0.49"/><circle cx="103.1" cy="-91.9" r="1" opacity="0.51"/><circle cx="-71.3" cy="158.7" r="5" opacity="0.48"/><circle cx="12.3" cy="-133.9" r="0.6" opacity="0.28"/><circle cx="23.0" cy="60.5" r="0.6" opacity="0.37"/><circle cx="15.6" cy="21.2" r="5" opacity="0.48"/><circle cx="-11.4" cy="17.8" r="0.8" opacity="0.85"/><circle cx="-11.5" cy="-73.3" r="2.5" opacity="0.51"/><circle cx="76.7" cy="-45.2" r="3.5" opacity="0.74"/><circle cx="-4.4" cy="48.9" r="2" opacity="0.43"/><circle cx="3.3" cy="20.5" r="2" opacity="0.31"/><circle cx="104.6" cy="-17.9" r="0.6" opacity="0.41"/><circle cx="30.0" cy="-32.9" r="2.5" opacity="0.55"/><circle cx="-16.8" cy="18.9" r="1.5" opacity="0.81"/><circle cx="10.4" cy="-34.6" r="0.6" opacity="0.37"/><circle cx="-70.1" cy="62.2" r="1" opacity="0.78"/><circle cx="-111.5" cy="-89.9" r="3.5" opacity="0.63"/><circle cx="103.9" cy="-112.7" r="0.8" opacity="0.37"/><circle cx="40.6" cy="124.2" r="7" opacity="0.80"/><circle cx="27.9" cy="179.5" r="5" opacity="0.82"/><circle cx="8.9" cy="-238.1" r="1" opacity="0.63"/><circle cx="-107.3" cy="133.1" r="2.5" opacity="0.68"/><circle cx="17.2" cy="-0.9" r="1" opacity="0.47"/><circle cx="61.6" cy="-29.7" r="0.8" opacity="0.65"/><circle cx="14.1" cy="-154.3" r="1.5" opacity="0.42"/><circle cx="-42.0" cy="31.4" r="3.5" opacity="0.66"/><circle cx="-50.3" cy="153.0" r="0.6" opacity="0.25"/><circle cx="104.9" cy="-73.7" r="1.5" opacity="0.77"/><circle cx="-38.9" cy="-86.0" r="0.6" opacity="0.31"/><circle cx="76.0" cy="13.0" r="0.8" opacity="0.81"/><circle cx="81.1" cy="-173.8" r="2.5" opacity="0.51"/><circle cx="41.9" cy="71.7" r="2.5" opacity="0.41"/><circle cx="8.0" cy="-5.6" r="2" opacity="0.55"/><circle cx="70.6" cy="4.5" r="1" opacity="0.69"/><circle cx="-28.5" cy="-51.4" r="2.5" opacity="0.30"/><circle cx="20.4" cy="149.6" r="7" opacity="0.50"/><circle cx="-2.1" cy="-39.0" r="0.6" opacity="0.72"/><circle cx="-60.5" cy="-101.1" r="1.5" opacity="0.47"/><circle cx="-65.2" cy="-134.7" r="5" opacity="0.78"/><circle cx="88.5" cy="-107.3" r="1" opacity="0.41"/><circle cx="27.8" cy="-22.0" r="1" opacity="0.43"/><circle cx="13.7" cy="-1.4" r="3.5" opacity="0.35"/><circle cx="1.7" cy="18.7" r="0.8" opacity="0.60"/><circle cx="109.9" cy="-98.5" r="2.5" opacity="0.70"/><circle cx="110.3" cy="-8.9" r="2.5" opacity="0.39"/><circle cx="32.2" cy="111.8" r="5" opacity="0.46"/><circle cx="-64.3" cy="-65.6" r="3.5" opacity="0.79"/><circle cx="9.6" cy="136.3" r="5" opacity="0.39"/><circle cx="-10.9" cy="-2.4" r="1.5" opacity="0.75"/><circle cx="-18.8" cy="21.2" r="1" opacity="0.41"/><circle cx="13.2" cy="60.4" r="3.5" opacity="0.45"/><circle cx="8.9" cy="13.0" r="5" opacity="0.65"/><circle cx="94.2" cy="-157.7" r="1" opacity="0.77"/><circle cx="-61.3" cy="12.4" r="3.5" opacity="0.33"/><circle cx="-33.6" cy="-96.0" r="1" opacity="0.82"/><circle cx="-22.6" cy="-53.3" r="5" opacity="0.84"/><circle cx="16.1" cy="-233.0" r="3.5" opacity="0.74"/><circle cx="27.6" cy="-35.9" r="5" opacity="0.27"/><circle cx="-46.2" cy="-79.4" r="0.6" opacity="0.47"/><circle cx="117.9" cy="78.1" r="3.5" opacity="0.70"/><circle cx="25.7" cy="-51.5" r="0.8" opacity="0.44"/><circle cx="79.4" cy="-24.7" r="0.8" opacity="0.41"/><circle cx="-28.9" cy="-101.1" r="3.5" opacity="0.62"/><circle cx="117.8" cy="-188.7" r="1.5" opacity="0.42"/><circle cx="-28.9" cy="-50.3" r="0.8" opacity="0.57"/><circle cx="-100.9" cy="7.3" r="1" opacity="0.73"/><circle cx="-2.3" cy="67.5" r="1.5" opacity="0.46"/><circle cx="47.0" cy="-33.9" r="0.6" opacity="0.70"/><circle cx="-143.3" cy="-61.9" r="1.5" opacity="0.82"/><circle cx="-51.7" cy="-53.9" r="1" opacity="0.65"/><circle cx="198.4" cy="166.9" r="0.6" opacity="0.82"/><circle cx="-11.4" cy="-77.8" r="5" opacity="0.60"/><circle cx="67.4" cy="-133.5" r="1.5" opacity="0.28"/><circle cx="90.3" cy="40.4" r="5" opacity="0.54"/><circle cx="-77.0" cy="-45.3" r="7" opacity="0.61"/><circle cx="-50.0" cy="-44.4" r="1" opacity="0.46"/><circle cx="-49.8" cy="-18.3" r="2" opacity="0.41"/><circle cx="-41.2" cy="-16.5" r="1" opacity="0.38"/><circle cx="44.0" cy="-7.1" r="7" opacity="0.25"/><circle cx="-4.8" cy="-93.4" r="0.8" opacity="0.56"/><circle cx="-30.3" cy="61.2" r="5" opacity="0.62"/><circle cx="29.4" cy="46.1" r="7" opacity="0.60"/><circle cx="43.9" cy="39.2" r="3.5" opacity="0.52"/><circle cx="-60.9" cy="-99.6" r="7" opacity="0.71"/><circle cx="43.4" cy="-18.4" r="5" opacity="0.55"/><circle cx="7.1" cy="-118.1" r="7" opacity="0.84"/><circle cx="-6.0" cy="-22.2" r="7" opacity="0.51"/><circle cx="-94.4" cy="-85.3" r="7" opacity="0.80"/><circle cx="49.0" cy="9.9" r="2" opacity="0.73"/><circle cx="-63.1" cy="-72.8" r="3.5" opacity="0.64"/><circle cx="-67.6" cy="-157.0" r="1.5" opacity="0.46"/><circle cx="5.9" cy="-41.0" r="0.6" opacity="0.51"/><circle cx="6.4" cy="-71.6" r="3.5" opacity="0.47"/><circle cx="-51.5" cy="-119.1" r="1" opacity="0.65"/><circle cx="65.4" cy="145.1" r="2" opacity="0.57"/><circle cx="110.1" cy="-61.3" r="5" opacity="0.75"/><circle cx="-23.2" cy="5.5" r="1.5" opacity="0.77"/><circle cx="28.9" cy="-15.2" r="7" opacity="0.70"/><circle cx="25.1" cy="13.2" r="5" opacity="0.48"/><circle cx="-81.6" cy="-36.5" r="5" opacity="0.54"/><ellipse cx="4.0" cy="-50.2" rx="2" ry="9" transform="rotate(184.6 4.0 -50.2)"/><ellipse cx="-33.0" cy="49.2" rx="2" ry="9" transform="rotate(33.8 -33.0 49.2)"/><ellipse cx="62.4" cy="-19.0" rx="2" ry="9" transform="rotate(253.1 62.4 -19.0)"/><ellipse cx="-33.8" cy="-50.0" rx="2" ry="9" transform="rotate(145.9 -33.8 -50.0)"/><ellipse cx="-20.9" cy="-56.4" rx="2" ry="9" transform="rotate(159.7 -20.9 -56.4)"/><ellipse cx="47.5" cy="-47.9" rx="2" ry="9" transform="rotate(224.8 47.5 -47.9)"/><ellipse cx="74.2" cy="16.9" rx="2" ry="9" transform="rotate(-77.2 74.2 16.9)"/><ellipse cx="-15.1" cy="40.7" rx="2" ry="9" transform="rotate(20.4 -15.1 40.7)"/><path d="M8 27 Q6 67 11 105 Q14 120 16 105 L15 27Z" opacity=".42"/></g><g fill="#365aff" opacity=".3" transform="translate(3 1390) scale(0.384)"><circle cx="-19.3" cy="-25.3" r="6.9"/><circle cx="13.3" cy="26.0" r="16.0"/><circle cx="3.3" cy="56.1" r="14.5"/><circle cx="-3.7" cy="-8.6" r="10.8"/><circle cx="18.5" cy="30.8" r="6.8"/><circle cx="-8.1" cy="-36.5" r="8.8"/><circle cx="-24.4" cy="36.9" r="5.8"/><circle cx="-29.7" cy="-20.3" r="4.1"/><circle cx="4.5" cy="-22.7" r="7.5"/><circle cx="32.4" cy="-0.9" r="8.0"/><circle cx="14.9" cy="-5.3" r="15.0"/><circle cx="14.0" cy="-27.3" r="4.5"/><circle cx="2.3" cy="30.3" r="5.3"/><circle cx="-16.0" cy="18.6" r="15.8"/><circle cx="12.0" cy="0.6" r="7.2"/><circle cx="16.5" cy="-14.5" r="12.8"/><circle cx="25.5" cy="-29.2" r="9.2"/><circle cx="12.9" cy="48.9" r="11.3"/><circle cx="-18.1" cy="-61.3" r="7.4"/><circle cx="-22.4" cy="29.0" r="7.7"/><circle cx="-29.3" cy="-26.8" r="9.2"/><circle cx="-4.4" cy="9.9" r="8.8"/><circle cx="22.7" cy="36.4" r="11.4"/><circle cx="-3.9" cy="-32.4" r="10.5"/><circle cx="-4.1" cy="-54.4" r="4.4"/><circle cx="32.3" cy="-50.2" r="16.8"/><circle cx="30.1" cy="6.2" r="5.9"/><circle cx="-18.9" cy="7.5" r="9.9"/><circle cx="33.0" cy="-88.3" r="1" opacity="0.62"/><circle cx="99.6" cy="-45.5" r="0.6" opacity="0.30"/><circle cx="-4.9" cy="-29.7" r="5" opacity="0.36"/><circle cx="13.9" cy="198.4" r="3.5" opacity="0.32"/><circle cx="-21.9" cy="-55.8" r="0.6" opacity="0.40"/><circle cx="11.1" cy="-83.8" r="1.5" opacity="0.81"/><circle cx="7.8" cy="32.0" r="2" opacity="0.66"/><circle cx="45.6" cy="-76.9" r="0.6" opacity="0.36"/><circle cx="31.9" cy="10.3" r="0.6" opacity="0.85"/><circle cx="-45.2" cy="-27.7" r="3.5" opacity="0.28"/><circle cx="-24.0" cy="-65.4" r="0.6" opacity="0.55"/><circle cx="-18.4" cy="45.6" r="2" opacity="0.65"/><circle cx="-47.0" cy="55.2" r="3.5" opacity="0.77"/><circle cx="-40.7" cy="-155.8" r="2.5" opacity="0.57"/><circle cx="-14.8" cy="97.1" r="3.5" opacity="0.54"/><circle cx="-4.0" cy="51.1" r="7" opacity="0.82"/><circle cx="63.4" cy="-46.0" r="7" opacity="0.30"/><circle cx="31.3" cy="143.3" r="0.8" opacity="0.72"/><circle cx="-0.6" cy="87.7" r="1" opacity="0.59"/><circle cx="11.6" cy="153.5" r="0.8" opacity="0.50"/><circle cx="-83.7" cy="94.1" r="5" opacity="0.57"/><circle cx="20.8" cy="-30.9" r="0.8" opacity="0.58"/><circle cx="-22.5" cy="93.1" r="5" opacity="0.64"/><circle cx="-46.8" cy="-87.6" r="3.5" opacity="0.70"/><circle cx="-9.0" cy="-82.2" r="3.5" opacity="0.37"/><circle cx="75.4" cy="63.0" r="0.8" opacity="0.47"/><circle cx="-7.9" cy="145.6" r="2" opacity="0.56"/><circle cx="16.3" cy="-125.3" r="0.8" opacity="0.27"/><circle cx="32.0" cy="165.5" r="5" opacity="0.59"/><circle cx="-158.1" cy="22.4" r="1.5" opacity="0.26"/><circle cx="-26.5" cy="15.0" r="3.5" opacity="0.68"/><circle cx="-12.6" cy="-118.6" r="2" opacity="0.75"/><circle cx="-11.2" cy="-67.0" r="0.6" opacity="0.58"/><circle cx="185.2" cy="-54.2" r="2" opacity="0.77"/><circle cx="-1.3" cy="-4.1" r="5" opacity="0.30"/><circle cx="0.4" cy="-59.1" r="5" opacity="0.57"/><circle cx="-33.8" cy="-33.1" r="2.5" opacity="0.54"/><circle cx="113.7" cy="-45.2" r="3.5" opacity="0.82"/><circle cx="2.9" cy="85.1" r="2.5" opacity="0.38"/><circle cx="62.1" cy="85.7" r="2" opacity="0.56"/><circle cx="-53.5" cy="116.7" r="0.6" opacity="0.71"/><circle cx="-11.6" cy="-54.5" r="1.5" opacity="0.54"/><circle cx="-51.0" cy="-96.8" r="5" opacity="0.41"/><circle cx="-39.3" cy="-80.4" r="7" opacity="0.33"/><circle cx="0.5" cy="-140.6" r="5" opacity="0.84"/><circle cx="-19.0" cy="-97.8" r="1.5" opacity="0.64"/><circle cx="0.5" cy="8.0" r="1.5" opacity="0.40"/><circle cx="-0.9" cy="-31.7" r="7" opacity="0.41"/><circle cx="7.6" cy="-32.7" r="5" opacity="0.78"/><circle cx="88.7" cy="20.8" r="7" opacity="0.60"/><circle cx="-17.3" cy="135.1" r="3.5" opacity="0.47"/><circle cx="22.5" cy="6.9" r="0.8" opacity="0.81"/><circle cx="-8.6" cy="145.0" r="3.5" opacity="0.32"/><circle cx="56.1" cy="-52.6" r="3.5" opacity="0.78"/><circle cx="50.7" cy="200.0" r="0.8" opacity="0.68"/><circle cx="-103.8" cy="-53.7" r="3.5" opacity="0.53"/><circle cx="27.2" cy="70.3" r="7" opacity="0.74"/><circle cx="-54.7" cy="22.5" r="0.6" opacity="0.43"/><circle cx="112.4" cy="63.9" r="7" opacity="0.61"/><circle cx="-38.3" cy="-142.1" r="0.6" opacity="0.66"/><circle cx="-15.0" cy="49.5" r="5" opacity="0.60"/><circle cx="-51.0" cy="-60.8" r="0.8" opacity="0.63"/><circle cx="65.3" cy="-52.5" r="0.8" opacity="0.30"/><circle cx="63.0" cy="-111.6" r="1.5" opacity="0.51"/><circle cx="80.1" cy="49.2" r="7" opacity="0.61"/><circle cx="1.2" cy="114.9" r="1" opacity="0.31"/><circle cx="22.8" cy="71.3" r="1" opacity="0.50"/><circle cx="-138.9" cy="35.9" r="2.5" opacity="0.50"/><circle cx="-65.4" cy="-121.4" r="0.8" opacity="0.31"/><circle cx="-82.5" cy="39.4" r="2.5" opacity="0.26"/><circle cx="-26.6" cy="157.7" r="0.6" opacity="0.43"/><circle cx="39.0" cy="47.8" r="2" opacity="0.65"/><circle cx="23.6" cy="84.3" r="1" opacity="0.63"/><circle cx="-24.8" cy="114.2" r="5" opacity="0.60"/><circle cx="-75.0" cy="53.5" r="0.8" opacity="0.37"/><circle cx="57.4" cy="-39.9" r="2.5" opacity="0.54"/><circle cx="34.7" cy="-69.1" r="7" opacity="0.39"/><circle cx="-72.2" cy="40.2" r="5" opacity="0.50"/><circle cx="-105.5" cy="100.8" r="1" opacity="0.35"/><circle cx="-48.7" cy="10.1" r="0.6" opacity="0.62"/><circle cx="90.4" cy="-96.8" r="7" opacity="0.30"/><circle cx="-32.0" cy="111.8" r="2" opacity="0.63"/><circle cx="-87.8" cy="56.4" r="5" opacity="0.47"/><circle cx="79.6" cy="-108.0" r="2.5" opacity="0.48"/><circle cx="-14.2" cy="-53.2" r="5" opacity="0.37"/><circle cx="-1.7" cy="-78.7" r="2.5" opacity="0.51"/><circle cx="8.6" cy="15.9" r="5" opacity="0.75"/><circle cx="-45.8" cy="110.1" r="1.5" opacity="0.72"/><circle cx="-12.5" cy="57.9" r="5" opacity="0.69"/><circle cx="-62.3" cy="-66.5" r="2" opacity="0.70"/><circle cx="80.5" cy="-66.5" r="1.5" opacity="0.46"/><circle cx="-59.8" cy="94.2" r="3.5" opacity="0.66"/><circle cx="-90.8" cy="38.1" r="7" opacity="0.32"/><circle cx="-37.9" cy="-12.6" r="5" opacity="0.60"/><circle cx="54.5" cy="83.0" r="7" opacity="0.42"/><circle cx="93.1" cy="113.7" r="3.5" opacity="0.51"/><circle cx="22.4" cy="-142.9" r="3.5" opacity="0.79"/><circle cx="-7.1" cy="-48.9" r="2" opacity="0.53"/><circle cx="121.0" cy="-13.4" r="1" opacity="0.73"/><circle cx="4.0" cy="11.9" r="2" opacity="0.76"/><circle cx="-67.5" cy="62.1" r="5" opacity="0.52"/><circle cx="-24.5" cy="-0.9" r="0.8" opacity="0.84"/><circle cx="-26.1" cy="113.1" r="3.5" opacity="0.81"/><circle cx="-101.8" cy="-85.0" r="3.5" opacity="0.36"/><circle cx="74.6" cy="66.8" r="5" opacity="0.84"/><circle cx="-34.5" cy="6.3" r="2" opacity="0.54"/><circle cx="-25.3" cy="85.1" r="2" opacity="0.55"/><circle cx="-54.4" cy="-204.7" r="7" opacity="0.61"/><circle cx="84.0" cy="-7.9" r="2" opacity="0.53"/><circle cx="8.1" cy="-74.9" r="0.8" opacity="0.73"/><circle cx="-12.7" cy="19.1" r="7" opacity="0.47"/><circle cx="-45.7" cy="217.1" r="7" opacity="0.44"/><circle cx="-2.3" cy="46.7" r="2.5" opacity="0.56"/><circle cx="175.4" cy="102.7" r="7" opacity="0.78"/><circle cx="51.4" cy="17.0" r="5" opacity="0.44"/><circle cx="30.0" cy="176.8" r="3.5" opacity="0.27"/><circle cx="-46.3" cy="-76.8" r="7" opacity="0.84"/><circle cx="-37.1" cy="-11.5" r="2" opacity="0.53"/><circle cx="29.3" cy="-86.7" r="2.5" opacity="0.57"/><circle cx="-54.8" cy="-136.7" r="0.6" opacity="0.82"/><circle cx="-46.1" cy="-105.8" r="5" opacity="0.46"/><circle cx="52.8" cy="38.0" r="1.5" opacity="0.59"/><circle cx="58.9" cy="-148.4" r="2" opacity="0.54"/><circle cx="-91.7" cy="17.9" r="0.6" opacity="0.36"/><circle cx="115.3" cy="-95.2" r="5" opacity="0.67"/><ellipse cx="-73.2" cy="-37.2" rx="2" ry="9" transform="rotate(117.0 -73.2 -37.2)"/><ellipse cx="41.3" cy="-60.8" rx="2" ry="9" transform="rotate(214.2 41.3 -60.8)"/><ellipse cx="25.3" cy="60.5" rx="2" ry="9" transform="rotate(-22.7 25.3 60.5)"/><ellipse cx="-23.6" cy="42.1" rx="2" ry="9" transform="rotate(29.3 -23.6 42.1)"/><ellipse cx="0.3" cy="-47.6" rx="2" ry="9" transform="rotate(180.4 0.3 -47.6)"/><ellipse cx="-49.6" cy="-3.0" rx="2" ry="9" transform="rotate(93.5 -49.6 -3.0)"/><ellipse cx="-53.5" cy="-49.4" rx="2" ry="9" transform="rotate(132.7 -53.5 -49.4)"/><ellipse cx="47.9" cy="-59.6" rx="2" ry="9" transform="rotate(218.8 47.9 -59.6)"/><path d="M8 27 Q6 67 11 105 Q14 120 16 105 L15 27Z" opacity=".42"/></g><g fill="#a33cdc" opacity=".3" transform="translate(394 1620) scale(0.33599999999999997)"><circle cx="19.0" cy="-22.9" r="14.2"/><circle cx="15.8" cy="-35.7" r="12.9"/><circle cx="-42.3" cy="21.4" r="15.1"/><circle cx="2.6" cy="-16.4" r="16.5"/><circle cx="-13.0" cy="19.3" r="17.0"/><circle cx="11.8" cy="24.7" r="6.6"/><circle cx="12.2" cy="17.9" r="8.2"/><circle cx="-3.2" cy="-8.6" r="6.7"/><circle cx="-41.8" cy="-11.1" r="10.6"/><circle cx="22.3" cy="4.9" r="14.3"/><circle cx="3.5" cy="-9.1" r="12.4"/><circle cx="18.6" cy="14.1" r="16.5"/><circle cx="14.8" cy="12.3" r="8.2"/><circle cx="4.1" cy="45.8" r="5.7"/><circle cx="-5.0" cy="-19.0" r="11.9"/><circle cx="-7.1" cy="27.7" r="8.0"/><circle cx="17.5" cy="9.2" r="6.1"/><circle cx="-8.6" cy="-20.9" r="5.8"/><circle cx="35.6" cy="-38.4" r="15.4"/><circle cx="44.1" cy="-19.4" r="10.8"/><circle cx="41.4" cy="-32.1" r="9.9"/><circle cx="8.9" cy="-11.5" r="4.4"/><circle cx="-23.5" cy="9.3" r="7.7"/><circle cx="4.1" cy="-20.5" r="11.6"/><circle cx="7.7" cy="-14.8" r="10.0"/><circle cx="41.4" cy="-38.6" r="6.7"/><circle cx="43.4" cy="33.6" r="10.3"/><circle cx="40.8" cy="-16.9" r="9.9"/><circle cx="-27.8" cy="50.1" r="2" opacity="0.37"/><circle cx="-62.0" cy="75.3" r="5" opacity="0.77"/><circle cx="-77.2" cy="40.3" r="2" opacity="0.82"/><circle cx="-42.1" cy="79.1" r="2.5" opacity="0.38"/><circle cx="-135.2" cy="-116.5" r="7" opacity="0.39"/><circle cx="56.6" cy="2.8" r="3.5" opacity="0.73"/><circle cx="-47.9" cy="-44.4" r="0.8" opacity="0.42"/><circle cx="-85.6" cy="26.5" r="2.5" opacity="0.36"/><circle cx="36.8" cy="148.9" r="0.6" opacity="0.83"/><circle cx="-69.0" cy="65.7" r="0.6" opacity="0.37"/><circle cx="-36.9" cy="99.9" r="1" opacity="0.84"/><circle cx="-43.1" cy="35.7" r="7" opacity="0.38"/><circle cx="16.0" cy="-15.5" r="0.6" opacity="0.82"/><circle cx="-25.4" cy="-180.4" r="5" opacity="0.39"/><circle cx="-27.1" cy="-161.5" r="3.5" opacity="0.70"/><circle cx="23.1" cy="112.6" r="3.5" opacity="0.28"/><circle cx="-94.5" cy="8.8" r="1.5" opacity="0.30"/><circle cx="38.1" cy="224.9" r="7" opacity="0.55"/><circle cx="47.2" cy="-3.7" r="0.6" opacity="0.66"/><circle cx="-18.7" cy="156.9" r="5" opacity="0.73"/><circle cx="-219.6" cy="38.7" r="2" opacity="0.73"/><circle cx="65.8" cy="-92.9" r="1.5" opacity="0.58"/><circle cx="57.6" cy="-101.7" r="0.8" opacity="0.34"/><circle cx="-27.7" cy="118.8" r="1.5" opacity="0.63"/><circle cx="-31.3" cy="115.0" r="3.5" opacity="0.63"/><circle cx="-76.6" cy="182.5" r="7" opacity="0.37"/><circle cx="54.2" cy="187.2" r="3.5" opacity="0.71"/><circle cx="-43.2" cy="-63.2" r="7" opacity="0.78"/><circle cx="66.5" cy="132.4" r="7" opacity="0.32"/><circle cx="76.2" cy="-62.7" r="2" opacity="0.58"/><circle cx="-40.6" cy="-2.8" r="7" opacity="0.28"/><circle cx="81.6" cy="-37.9" r="5" opacity="0.32"/><circle cx="-74.3" cy="-145.5" r="3.5" opacity="0.73"/><circle cx="29.5" cy="-172.0" r="2.5" opacity="0.81"/><circle cx="36.9" cy="164.3" r="7" opacity="0.51"/><circle cx="-33.9" cy="36.1" r="0.6" opacity="0.62"/><circle cx="23.5" cy="-62.3" r="0.6" opacity="0.26"/><circle cx="-117.2" cy="-161.9" r="1.5" opacity="0.43"/><circle cx="-17.2" cy="99.5" r="5" opacity="0.66"/><circle cx="-23.6" cy="93.7" r="1.5" opacity="0.66"/><circle cx="69.0" cy="-6.3" r="1.5" opacity="0.71"/><circle cx="27.2" cy="-68.5" r="0.6" opacity="0.40"/><circle cx="-132.7" cy="-127.1" r="7" opacity="0.73"/><circle cx="-89.4" cy="-14.7" r="0.8" opacity="0.35"/><circle cx="149.2" cy="54.0" r="0.8" opacity="0.43"/><circle cx="98.2" cy="-220.5" r="5" opacity="0.45"/><circle cx="-34.0" cy="56.6" r="2" opacity="0.47"/><circle cx="-14.4" cy="168.9" r="0.8" opacity="0.26"/><circle cx="-115.4" cy="53.2" r="2" opacity="0.56"/><circle cx="-26.1" cy="131.4" r="2.5" opacity="0.44"/><circle cx="-36.5" cy="-135.7" r="1.5" opacity="0.81"/><circle cx="-28.3" cy="-7.1" r="2" opacity="0.56"/><circle cx="44.8" cy="60.8" r="2.5" opacity="0.79"/><circle cx="-110.2" cy="-12.2" r="1" opacity="0.47"/><circle cx="-41.5" cy="-25.2" r="1.5" opacity="0.44"/><circle cx="88.6" cy="-93.1" r="1.5" opacity="0.38"/><circle cx="-17.0" cy="77.5" r="3.5" opacity="0.65"/><circle cx="51.6" cy="86.3" r="2.5" opacity="0.37"/><circle cx="75.9" cy="1.4" r="3.5" opacity="0.81"/><circle cx="17.5" cy="7.7" r="7" opacity="0.66"/><circle cx="-23.5" cy="-67.8" r="1" opacity="0.69"/><circle cx="77.0" cy="-89.8" r="1" opacity="0.76"/><circle cx="25.2" cy="31.4" r="3.5" opacity="0.81"/><circle cx="-19.0" cy="-48.1" r="7" opacity="0.44"/><circle cx="89.1" cy="-160.0" r="2" opacity="0.74"/><circle cx="-178.8" cy="-95.4" r="7" opacity="0.25"/><circle cx="80.6" cy="-118.3" r="1" opacity="0.81"/><circle cx="70.3" cy="143.1" r="0.6" opacity="0.58"/><circle cx="51.3" cy="43.8" r="2.5" opacity="0.34"/><circle cx="65.6" cy="-118.1" r="3.5" opacity="0.32"/><circle cx="113.8" cy="-62.4" r="7" opacity="0.76"/><circle cx="-32.3" cy="123.1" r="1" opacity="0.40"/><circle cx="50.2" cy="-31.9" r="5" opacity="0.74"/><circle cx="-136.1" cy="140.2" r="2.5" opacity="0.51"/><circle cx="74.3" cy="-32.1" r="3.5" opacity="0.76"/><circle cx="194.6" cy="-32.9" r="0.8" opacity="0.75"/><circle cx="47.6" cy="87.0" r="1" opacity="0.75"/><circle cx="13.5" cy="33.8" r="7" opacity="0.67"/><circle cx="48.5" cy="-96.6" r="0.8" opacity="0.30"/><circle cx="-1.6" cy="29.2" r="0.8" opacity="0.31"/><circle cx="72.3" cy="-13.8" r="3.5" opacity="0.56"/><circle cx="76.7" cy="-199.7" r="5" opacity="0.74"/><circle cx="-24.3" cy="-5.3" r="3.5" opacity="0.44"/><circle cx="-63.3" cy="-56.9" r="7" opacity="0.69"/><circle cx="66.8" cy="141.1" r="1.5" opacity="0.36"/><circle cx="47.5" cy="280.4" r="0.8" opacity="0.26"/><circle cx="-49.2" cy="-10.4" r="5" opacity="0.55"/><circle cx="28.4" cy="-110.4" r="2.5" opacity="0.72"/><circle cx="-20.8" cy="-20.9" r="0.8" opacity="0.72"/><circle cx="-9.1" cy="-63.1" r="3.5" opacity="0.39"/><circle cx="46.7" cy="-62.2" r="5" opacity="0.32"/><circle cx="-69.0" cy="114.6" r="1.5" opacity="0.50"/><circle cx="9.8" cy="-42.0" r="2" opacity="0.50"/><circle cx="76.2" cy="124.1" r="0.8" opacity="0.43"/><circle cx="111.4" cy="9.5" r="5" opacity="0.84"/><circle cx="-17.9" cy="-20.3" r="5" opacity="0.26"/><circle cx="11.0" cy="-20.3" r="0.6" opacity="0.43"/><circle cx="-61.2" cy="-139.2" r="3.5" opacity="0.28"/><circle cx="-25.2" cy="-34.5" r="2" opacity="0.76"/><circle cx="-170.5" cy="9.2" r="3.5" opacity="0.74"/><circle cx="61.9" cy="54.8" r="0.8" opacity="0.75"/><circle cx="14.2" cy="-25.2" r="3.5" opacity="0.34"/><circle cx="-24.1" cy="-95.9" r="0.6" opacity="0.72"/><circle cx="44.8" cy="142.7" r="7" opacity="0.30"/><circle cx="-8.9" cy="103.8" r="2" opacity="0.34"/><circle cx="-149.3" cy="-132.6" r="0.8" opacity="0.74"/><circle cx="-32.5" cy="-152.0" r="1" opacity="0.61"/><circle cx="9.9" cy="-21.1" r="5" opacity="0.30"/><circle cx="41.9" cy="81.7" r="1.5" opacity="0.56"/><circle cx="44.2" cy="50.4" r="5" opacity="0.47"/><circle cx="-71.3" cy="-157.5" r="0.6" opacity="0.43"/><circle cx="41.3" cy="-14.9" r="5" opacity="0.75"/><circle cx="-115.4" cy="-65.7" r="2" opacity="0.70"/><circle cx="13.9" cy="-67.8" r="3.5" opacity="0.67"/><circle cx="-55.0" cy="54.6" r="7" opacity="0.55"/><circle cx="-49.7" cy="-46.8" r="2.5" opacity="0.59"/><circle cx="91.1" cy="-50.0" r="5" opacity="0.26"/><circle cx="-33.1" cy="44.6" r="0.6" opacity="0.58"/><circle cx="-41.3" cy="-62.2" r="3.5" opacity="0.49"/><circle cx="-98.8" cy="79.9" r="1" opacity="0.40"/><circle cx="72.5" cy="-74.4" r="0.6" opacity="0.50"/><circle cx="115.4" cy="-60.0" r="2" opacity="0.39"/><circle cx="82.0" cy="-19.5" r="2.5" opacity="0.84"/><circle cx="110.8" cy="121.6" r="2" opacity="0.81"/><circle cx="-62.6" cy="22.1" r="2.5" opacity="0.49"/><ellipse cx="-73.1" cy="8.8" rx="2" ry="9" transform="rotate(83.1 -73.1 8.8)"/><ellipse cx="40.3" cy="34.8" rx="2" ry="9" transform="rotate(-49.2 40.3 34.8)"/><ellipse cx="78.7" cy="23.9" rx="2" ry="9" transform="rotate(-73.1 78.7 23.9)"/><ellipse cx="6.8" cy="-46.7" rx="2" ry="9" transform="rotate(188.3 6.8 -46.7)"/><ellipse cx="50.6" cy="-1.4" rx="2" ry="9" transform="rotate(268.4 50.6 -1.4)"/><ellipse cx="-56.0" cy="19.4" rx="2" ry="9" transform="rotate(70.9 -56.0 19.4)"/><ellipse cx="-55.0" cy="-34.8" rx="2" ry="9" transform="rotate(122.3 -55.0 -34.8)"/><ellipse cx="50.7" cy="30.1" rx="2" ry="9" transform="rotate(-59.3 50.7 30.1)"/><path d="M8 27 Q6 67 11 105 Q14 120 16 105 L15 27Z" opacity=".42"/></g></svg>